<!-- Warm Instrument · design-6 · genre: editorial-precision
     surface: 00-front-door · empty/generate state
     pre-emit critique: P5 H5 E5 S5 R5 V5
     Clay rule: accent only on Conjure button + generate cursor. All chrome ink/neutral. -->
<svg xmlns="http://www.w3.org/2000/svg" width="1440" height="980" viewBox="0 0 1440 980"
     font-family="Inter, ui-sans-serif, system-ui, -apple-system, sans-serif">

  <!-- ── Background ──────────────────────────────────────────────── -->
  <rect width="1440" height="980" fill="#faf8f5"/>

  <!-- ── Top bar ──────────────────────────────────────────────────── -->
  <rect width="1440" height="56" fill="#faf8f5"/>
  <line x1="0" y1="56" x2="1440" y2="56" stroke="#dad7d2" stroke-width="1"/>
  <!-- wordmark -->
  <text x="32" y="34" font-family="Georgia, 'Times New Roman', ui-serif, serif"
        font-size="19" font-weight="600" letter-spacing="-0.01em" fill="#171614">genie</text>
  <!-- nav tabs -->
  <text x="148" y="33" font-size="14" font-weight="500" fill="#171614">Generate</text>
  <line x1="148" y1="55" x2="205" y2="55" stroke="#171614" stroke-width="2"/>
  <text x="228" y="33" font-size="14" font-weight="400" fill="#75716d">Browse</text>
  <text x="302" y="33" font-size="14" font-weight="400" fill="#75716d">Review</text>
  <!-- right controls -->
  <rect x="1352" y="16" width="24" height="24" rx="12" fill="#eae6df"/>
  <text x="1364" y="33" font-size="12" font-weight="600" fill="#75716d" text-anchor="middle">RG</text>
  <rect x="1316" y="18" width="20" height="20" rx="4" fill="none" stroke="#dad7d2" stroke-width="1"/>
  <line x1="1318" y1="24" x2="1334" y2="24" stroke="#75716d" stroke-width="1.5"/>
  <line x1="1318" y1="28" x2="1334" y2="28" stroke="#75716d" stroke-width="1.5"/>
  <line x1="1318" y1="32" x2="1328" y2="32" stroke="#75716d" stroke-width="1.5"/>

  <!-- ── Hero heading ──────────────────────────────────────────────── -->
  <text x="720" y="176" font-family="Georgia, 'Times New Roman', ui-serif, serif"
        font-size="52" font-weight="500" fill="#171614" text-anchor="middle"
        letter-spacing="-0.015em">Your wish is my command.</text>
  <text x="720" y="220" font-size="16" font-weight="400" fill="#75716d"
        text-anchor="middle">Describe a component or UI pattern. Genie builds it for your kit.</text>

  <!-- ── Prompt card ──────────────────────────────────────────────── -->
  <!-- shadow (approximated with a lower opacity rect) -->
  <rect x="358" y="258" width="724" height="130" rx="8"
        fill="rgba(40,30,20,0.04)"/>
  <!-- card body -->
  <rect x="356" y="254" width="724" height="130" rx="8"
        fill="#ffffff" stroke="#dad7d2" stroke-width="1"/>
  <!-- lit top edge (craft detail — warm highlight, not a glow) -->
  <line x1="365" y1="255" x2="1072" y2="255" stroke="rgba(255,255,255,0.9)" stroke-width="1"/>
  <!-- prompt text -->
  <text x="380" y="289" font-size="15" fill="#171614">a pricing card with three tiers — free / pro / enterprise</text>
  <!-- blinking cursor -->
  <rect x="680" y="276" width="2" height="18" rx="1" fill="#c87c5e"/>

  <!-- bottom row divider -->
  <line x1="356" y1="332" x2="1080" y2="332" stroke="#dad7d2" stroke-width="1"/>
  <!-- UI kit selector -->
  <text x="376" y="351" font-size="12" font-weight="500" fill="#75716d">UI Kit</text>
  <text x="416" y="351" font-size="12" font-weight="500" fill="#423f3d">Quanta</text>
  <text x="463" y="351" font-size="10" fill="#dad7d2">▼</text>
  <!-- separator -->
  <line x1="490" y1="336" x2="490" y2="362" stroke="#dad7d2" stroke-width="1"/>
  <!-- model selector -->
  <text x="506" y="351" font-size="12" font-weight="500" fill="#75716d">Model</text>
  <text x="548" y="351" font-size="12" font-weight="500" fill="#423f3d">claude-opus-4</text>
  <text x="630" y="351" font-size="10" fill="#dad7d2">▼</text>
  <!-- Conjure button — CLAY FILL (generation moment)
       text token on-accent (DRO-748): 5.60:1 on accent fill; not white (3.23:1, AA gap in dark mode) -->
  <rect x="1000" y="335" width="80" height="30" rx="5" fill="#c87c5e"/>
  <text x="1040" y="355" font-size="13" font-weight="600" fill="#171614"
        text-anchor="middle">Conjure</text>

  <!-- ── Section: Blueprints ──────────────────────────────────────── -->
  <line x1="356" y1="416" x2="1084" y2="416" stroke="#dad7d2" stroke-width="1"/>
  <text x="356" y="408" font-family="'JetBrains Mono', ui-monospace, Menlo, monospace"
        font-size="10" font-weight="600" fill="#75716d" letter-spacing="0.07em">BLUEPRINTS</text>

  <!-- Blueprint table rows (D4-style hairline structure, warm paper) -->
  <!-- row header -->
  <text x="356" y="438" font-size="11" font-weight="600" fill="#75716d">NAME</text>
  <text x="560" y="438" font-size="11" font-weight="600" fill="#75716d">TYPE</text>
  <text x="720" y="438" font-size="11" font-weight="600" fill="#75716d">COMPONENTS</text>
  <text x="920" y="438" font-size="11" font-weight="600" fill="#75716d">LAST USED</text>
  <line x1="356" y1="444" x2="1084" y2="444" stroke="#dad7d2" stroke-width="1"/>

  <!-- Blueprint row 1 -->
  <rect x="356" y="445" width="728" height="36" fill="transparent"/>
  <text x="356" y="469" font-size="13" fill="#171614">Pricing Card</text>
  <text x="560" y="469" font-size="12" fill="#75716d">PATTERN</text>
  <text x="720" y="469" font-size="12" fill="#75716d">Card · Badge · Button</text>
  <text x="920" y="469" font-size="12" fill="#75716d">2 days ago</text>
  <line x1="356" y1="481" x2="1084" y2="481" stroke="#dad7d2" stroke-width="0.5"/>

  <!-- Blueprint row 2 -->
  <text x="356" y="505" font-size="13" fill="#171614">Navigation Bar</text>
  <text x="560" y="505" font-size="12" fill="#75716d">COMPONENT</text>
  <text x="720" y="505" font-size="12" fill="#75716d">Link · Icon · Divider</text>
  <text x="920" y="505" font-size="12" fill="#75716d">5 days ago</text>
  <line x1="356" y1="517" x2="1084" y2="517" stroke="#dad7d2" stroke-width="0.5"/>

  <!-- Blueprint row 3 -->
  <text x="356" y="541" font-size="13" fill="#171614">Data Table</text>
  <text x="560" y="541" font-size="12" fill="#75716d">PATTERN</text>
  <text x="720" y="541" font-size="12" fill="#75716d">Table · Pagination · Filter</text>
  <text x="920" y="541" font-size="12" fill="#75716d">1 week ago</text>
  <line x1="356" y1="553" x2="1084" y2="553" stroke="#dad7d2" stroke-width="0.5"/>

  <!-- Blueprint row 4 -->
  <text x="356" y="577" font-size="13" fill="#171614">Auth Form</text>
  <text x="560" y="577" font-size="12" fill="#75716d">PATTERN</text>
  <text x="720" y="577" font-size="12" fill="#75716d">Input · Button · Link</text>
  <text x="920" y="577" font-size="12" fill="#75716d">2 weeks ago</text>
  <line x1="356" y1="589" x2="1084" y2="589" stroke="#dad7d2" stroke-width="1"/>

  <!-- ── Section: Recent kits ──────────────────────────────────────── -->
  <text x="356" y="624" font-family="'JetBrains Mono', ui-monospace, Menlo, monospace"
        font-size="10" font-weight="600" fill="#75716d" letter-spacing="0.07em">RECENT KITS</text>
  <line x1="356" y1="630" x2="1084" y2="630" stroke="#dad7d2" stroke-width="1"/>

  <!-- Kit card 1 -->
  <rect x="356" y="640" width="200" height="88" rx="8"
        fill="#f3f0ea" stroke="#dad7d2" stroke-width="1"/>
  <text x="376" y="665" font-size="13" font-weight="600" fill="#171614">Quanta UI Kit</text>
  <text x="376" y="682" font-size="11" fill="#75716d">68 components</text>
  <text x="376" y="700" font-size="11" fill="#75716d">design-sync active</text>
  <rect x="376" y="708" width="36" height="14" rx="7" fill="#fae2d8"/>
  <text x="394" y="719" font-size="9" font-weight="600" fill="#c87c5e"
        text-anchor="middle">synced</text>

  <!-- Kit card 2 -->
  <rect x="568" y="640" width="200" height="88" rx="8"
        fill="#f3f0ea" stroke="#dad7d2" stroke-width="1"/>
  <text x="588" y="665" font-size="13" font-weight="600" fill="#171614">Nova System</text>
  <text x="588" y="682" font-size="11" fill="#75716d">42 components</text>
  <text x="588" y="700" font-size="11" fill="#75716d">last sync: 3 days ago</text>
  <rect x="588" y="708" width="36" height="14" rx="7" fill="#f3f0ea" stroke="#dad7d2" stroke-width="1"/>
  <text x="606" y="719" font-size="9" font-weight="500" fill="#75716d"
        text-anchor="middle">idle</text>

  <!-- Kit card 3 -->
  <rect x="780" y="640" width="200" height="88" rx="8"
        fill="#f3f0ea" stroke="#dad7d2" stroke-width="1"/>
  <text x="800" y="665" font-size="13" font-weight="600" fill="#171614">Base DS</text>
  <text x="800" y="682" font-size="11" fill="#75716d">24 primitives</text>
  <text x="800" y="700" font-size="11" fill="#75716d">tokens only</text>
  <rect x="800" y="708" width="36" height="14" rx="7" fill="#f3f0ea" stroke="#dad7d2" stroke-width="1"/>
  <text x="818" y="719" font-size="9" font-weight="500" fill="#75716d"
        text-anchor="middle">idle</text>

  <!-- ── Footer hairline ──────────────────────────────────────────── -->
  <line x1="0" y1="960" x2="1440" y2="960" stroke="#dad7d2" stroke-width="1"/>
  <text x="32" y="973" font-size="11" fill="#75716d">genie · design-6 warm instrument</text>
  <text x="1408" y="973" font-size="11" fill="#75716d" text-anchor="end">00 front door</text>

</svg>
