<!-- Warm Instrument · design-6 · genre: editorial-precision
     surface: 01-ui-kit-browser · workbench split (option-1 archetype)
     pre-emit critique: P5 H5 E5 S5 R5 V5
     Clay rule: @genie marker only. All structural chrome ink/neutral. -->
<svg xmlns="http://www.w3.org/2000/svg" width="1440" height="980" viewBox="0 0 1440 980"
     font-family="Inter, ui-sans-serif, system-ui, -apple-system, sans-serif">

  <!-- ── Background ──────────────────────────────────────────────── -->
  <rect width="1440" height="980" fill="#faf8f5"/>

  <!-- ── Top bar ──────────────────────────────────────────────────── -->
  <rect width="1440" height="56" fill="#faf8f5"/>
  <line x1="0" y1="56" x2="1440" y2="56" stroke="#dad7d2" stroke-width="1"/>
  <text x="32" y="34" font-family="Georgia, 'Times New Roman', ui-serif, serif"
        font-size="19" font-weight="600" letter-spacing="-0.01em" fill="#171614">genie</text>
  <!-- breadcrumb -->
  <text x="148" y="33" font-size="14" fill="#75716d">Generate</text>
  <text x="214" y="33" font-size="14" fill="#dad7d2">/</text>
  <text x="228" y="33" font-size="14" font-weight="500" fill="#171614">Browse</text>
  <line x1="228" y1="55" x2="277" y2="55" stroke="#171614" stroke-width="2"/>
  <text x="302" y="33" font-size="14" fill="#75716d">Review</text>
  <!-- right controls -->
  <rect x="1352" y="16" width="24" height="24" rx="12" fill="#eae6df"/>
  <text x="1364" y="33" font-size="12" font-weight="600" fill="#75716d" text-anchor="middle">RG</text>

  <!-- ── Left sidebar: kit tree (240px) ───────────────────────────── -->
  <rect x="0" y="56" width="240" height="924" fill="#faf8f5"/>
  <line x1="240" y1="56" x2="240" y2="980" stroke="#dad7d2" stroke-width="1"/>

  <!-- Kit header -->
  <rect x="0" y="56" width="240" height="48" fill="#f3f0ea"/>
  <text x="16" y="84" font-size="13" font-weight="600" fill="#171614">Quanta UI Kit</text>
  <line x1="0" y1="104" x2="240" y2="104" stroke="#dad7d2" stroke-width="1"/>

  <!-- Tree section: brand -->
  <text x="16" y="126"
        font-family="'JetBrains Mono', ui-monospace, Menlo, monospace"
        font-size="10" font-weight="600" fill="#75716d" letter-spacing="0.06em">BRAND · 3</text>
  <text x="24" y="148" font-size="13" fill="#75716d">BrandMark</text>
  <text x="24" y="168" font-size="13" fill="#75716d">QGrid</text>
  <text x="24" y="188" font-size="13" fill="#75716d">QMonogram</text>
  <line x1="16" y1="196" x2="224" y2="196" stroke="#dad7d2" stroke-width="0.5"/>

  <!-- Tree section: primitives (expanded) -->
  <text x="16" y="216"
        font-family="'JetBrains Mono', ui-monospace, Menlo, monospace"
        font-size="10" font-weight="600" fill="#423f3d" letter-spacing="0.06em">PRIMITIVES · 6</text>
  <!-- selected: Button -->
  <rect x="0" y="220" width="240" height="28" fill="#f3f0ea"/>
  <line x1="0" y1="220" x2="0" y2="248" stroke="#171614" stroke-width="2"/>
  <!-- @genie marker — CLAY — generation identity on synced item -->
  <text x="24" y="240"
        font-family="'JetBrains Mono', ui-monospace, Menlo, monospace"
        font-size="10" font-weight="600" fill="#c87c5e">@genie</text>
  <text x="78" y="240" font-size="13" font-weight="600" fill="#171614">Button</text>
  <text x="24" y="265" font-size="13" fill="#75716d">Icon</text>
  <text x="24" y="285" font-size="13" fill="#75716d">Input</text>
  <text x="24" y="305" font-size="13" fill="#75716d">Badge</text>
  <text x="24" y="325" font-size="13" fill="#75716d">Divider</text>
  <text x="24" y="345" font-size="13" fill="#75716d">Link</text>
  <line x1="16" y1="352" x2="224" y2="352" stroke="#dad7d2" stroke-width="0.5"/>

  <!-- Tree section: components -->
  <text x="16" y="372"
        font-family="'JetBrains Mono', ui-monospace, Menlo, monospace"
        font-size="10" font-weight="600" fill="#75716d" letter-spacing="0.06em">COMPONENTS · 14</text>
  <text x="24" y="394" font-size="13" fill="#75716d">Card</text>
  <text x="24" y="414" font-size="13" fill="#75716d">Dialog</text>
  <text x="24" y="434" font-size="13" fill="#75716d">Dropdown</text>
  <text x="24" y="454" font-size="13" fill="#75716d">Form</text>
  <text x="24" y="474" font-size="13" fill="#75716d">Table</text>
  <line x1="16" y1="480" x2="224" y2="480" stroke="#dad7d2" stroke-width="0.5"/>

  <!-- Tree section: patterns -->
  <text x="16" y="500"
        font-family="'JetBrains Mono', ui-monospace, Menlo, monospace"
        font-size="10" font-weight="600" fill="#75716d" letter-spacing="0.06em">PATTERNS · 7</text>
  <text x="24" y="522" font-size="13" fill="#75716d">Auth Form</text>
  <text x="24" y="542" font-size="13" fill="#75716d">Pricing Table</text>
  <text x="24" y="562" font-size="13" fill="#75716d">Data Grid</text>

  <!-- ── Right panel: component detail ────────────────────────────── -->
  <!-- breadcrumb row -->
  <rect x="240" y="56" width="1200" height="48" fill="#faf8f5"/>
  <line x1="240" y1="104" x2="1440" y2="104" stroke="#dad7d2" stroke-width="1"/>
  <text x="264" y="84" font-size="12" fill="#75716d">Quanta</text>
  <text x="316" y="84" font-size="12" fill="#dad7d2">/</text>
  <text x="328" y="84" font-size="12" fill="#75716d">primitives</text>
  <text x="392" y="84" font-size="12" fill="#dad7d2">/</text>
  <text x="404" y="84" font-size="12" font-weight="600" fill="#171614">Button</text>

  <!-- component heading area -->
  <rect x="240" y="104" width="1200" height="80" fill="#faf8f5"/>
  <!-- @genie marker — CLAY -->
  <text x="264" y="139"
        font-family="'JetBrains Mono', ui-monospace, Menlo, monospace"
        font-size="12" font-weight="600" fill="#c87c5e">@genie</text>
  <text x="320" y="139" font-size="22" font-weight="600" fill="#171614">Button · Primary</text>
  <!-- status badges -->
  <rect x="264" y="150" width="74" height="18" rx="9" fill="#f3f0ea" stroke="#dad7d2" stroke-width="1"/>
  <text x="301" y="163" font-size="10" font-weight="600" fill="#2a7a42"
        text-anchor="middle">✓ validated</text>
  <rect x="346" y="150" width="72" height="18" rx="9" fill="#fae2d8"/>
  <text x="382" y="163" font-size="10" font-weight="600" fill="#c87c5e"
        text-anchor="middle">@genie synced</text>
  <line x1="240" y1="184" x2="1440" y2="184" stroke="#dad7d2" stroke-width="1"/>

  <!-- variants toolbar -->
  <rect x="240" y="184" width="1200" height="40" fill="#faf8f5"/>
  <!-- active tab: Default -->
  <rect x="264" y="192" width="58" height="24" rx="5" fill="#eae6df"/>
  <text x="293" y="208" font-size="12" font-weight="600" fill="#171614"
        text-anchor="middle">Default</text>
  <text x="348" y="208" font-size="12" fill="#75716d">Hover</text>
  <text x="394" y="208" font-size="12" fill="#75716d">Focus</text>
  <text x="440" y="208" font-size="12" fill="#75716d">Disabled</text>
  <line x1="240" y1="224" x2="1440" y2="224" stroke="#dad7d2" stroke-width="1"/>

  <!-- preview stage -->
  <rect x="240" y="224" width="1200" height="360" fill="#f3f0ea"/>
  <!-- centered component preview -->
  <rect x="780" y="360" width="120" height="40" rx="5" fill="#c87c5e"/>
  <text x="840" y="385" font-size="14" font-weight="600" fill="#ffffff"
        text-anchor="middle">Button</text>

  <!-- light stage label -->
  <text x="840" y="310" font-size="11" fill="#75716d" text-anchor="middle">
        PREVIEW · Default · @2x</text>
  <line x1="240" y1="584" x2="1440" y2="584" stroke="#dad7d2" stroke-width="1"/>

  <!-- selector row -->
  <rect x="240" y="584" width="1200" height="48" fill="#faf8f5"/>
  <line x1="240" y1="632" x2="1440" y2="632" stroke="#dad7d2" stroke-width="1"/>
  <text x="264" y="605" font-size="11" fill="#75716d">SELECTOR</text>
  <text x="340" y="605"
        font-family="'JetBrains Mono', ui-monospace, Menlo, monospace"
        font-size="11" fill="#171614">.ds-button --variant=primary</text>
  <text x="600" y="605" font-size="11" fill="#75716d">STATUS</text>
  <text x="654" y="605" font-size="11" fill="#2a7a42">active</text>
  <text x="740" y="605" font-size="11" fill="#75716d">TYPE</text>
  <text x="776" y="605"
        font-family="'JetBrains Mono', ui-monospace, Menlo, monospace"
        font-size="11" fill="#171614">ButtonHTMLElement</text>

  <!-- code snippet -->
  <rect x="264" y="648" width="880" height="96" rx="5"
        fill="#f1ece4" stroke="#dad7d2" stroke-width="1"/>
  <text x="284" y="672"
        font-family="'JetBrains Mono', ui-monospace, Menlo, monospace"
        font-size="12" fill="#75716d">// generated by @genie · DesignSync v3</text>
  <text x="284" y="692"
        font-family="'JetBrains Mono', ui-monospace, Menlo, monospace"
        font-size="12" fill="#345197">import</text>
  <text x="332" y="692"
        font-family="'JetBrains Mono', ui-monospace, Menlo, monospace"
        font-size="12" fill="#171614">{ Button } from</text>
  <text x="450" y="692"
        font-family="'JetBrains Mono', ui-monospace, Menlo, monospace"
        font-size="12" fill="#2a7a42">'@quanta/primitives'</text>
  <text x="284" y="712"
        font-family="'JetBrains Mono', ui-monospace, Menlo, monospace"
        font-size="12" fill="#171614">&lt;Button variant="primary"&gt;Label&lt;/Button&gt;</text>

  <!-- Refine button — CLAY (generation moment) -->
  <rect x="1200" y="648" width="120" height="36" rx="5" fill="#c87c5e"/>
  <text x="1260" y="671" font-size="13" font-weight="600" fill="#ffffff"
        text-anchor="middle">Refine →</text>

  <!-- ── Footer ──────────────────────────────────────────────────── -->
  <line x1="0" y1="960" x2="1440" y2="960" stroke="#dad7d2" stroke-width="1"/>
  <text x="32" y="973" font-size="11" fill="#75716d">genie · design-6 warm instrument</text>
  <text x="1408" y="973" font-size="11" fill="#75716d" text-anchor="end">01 ui kit browser</text>

</svg>
