<svg xmlns="http://www.w3.org/2000/svg" width="1440" height="980" viewBox="0 0 1440 980" role="img" aria-labelledby="title desc">
  <title id="title">genie UI option 3 - review studio</title>
  <desc id="desc">A Claude Design-informed genie review workspace centered on preview inspection, page/file navigation, comments, tweaks, validation evidence, and retry/debug states.</desc>
  <metadata>
    Hallmark critique stamp: Macrostructure=Review Studio; Theme=Neutral Audit; Nav=N8 inspection tabs; Footer=Ft4 command footer; Claude Design context=preview toolbar, comments, page selector, debug state.
  </metadata>
  <style>
    :root {
      --bg: oklch(97% 0.018 82);
      --shell: oklch(99% 0.006 82);
      --panel: oklch(94.5% 0.018 82);
      --card: oklch(99.2% 0.004 82);
      --ink: oklch(20% 0.042 252);
      --muted: oklch(48% 0.032 252);
      --faint: oklch(71% 0.022 252);
      --line: oklch(85% 0.018 82);
      --line-strong: oklch(72% 0.032 252);
      --accent: oklch(60% 0.118 42);
      --accent-soft: oklch(91% 0.046 42);
      --green: oklch(58% 0.105 152);
      --blue: oklch(54% 0.088 252);
      --shadow: oklch(24% 0.032 252 / 0.12);
      --mono: "SFMono-Regular", "JetBrains Mono", ui-monospace, monospace;
      --sans: Inter, ui-sans-serif, system-ui, -apple-system, BlinkMacSystemFont, "Segoe UI", sans-serif;
      --serif: Georgia, "Times New Roman", serif;
    }
    .bg { fill: var(--bg); }
    .shell { fill: var(--shell); stroke: var(--line); }
    .panel { fill: var(--panel); stroke: var(--line); }
    .card { fill: var(--card); stroke: var(--line); }
    .card-strong { fill: var(--card); stroke: var(--line-strong); }
    .soft { fill: var(--accent-soft); stroke: var(--accent); }
    .accent { fill: var(--accent); }
    .ink { fill: var(--ink); }
    .muted { fill: var(--muted); }
    .faint { fill: var(--faint); }
    .line { stroke: var(--line); }
    .line-strong { stroke: var(--line-strong); }
    .green { fill: var(--green); }
    .blue { fill: var(--blue); }
    .on-accent { fill: var(--shell); }
    .h1 { font: 700 30px var(--serif); fill: var(--ink); }
    .h2 { font: 700 17px var(--sans); fill: var(--ink); }
    .h3 { font: 650 13px var(--sans); fill: var(--ink); letter-spacing: .02em; }
    .body { font: 13px var(--sans); fill: var(--muted); }
    .small { font: 11px var(--sans); fill: var(--muted); }
    .tiny { font: 10px var(--mono); fill: var(--faint); letter-spacing: .02em; }
    .mono { font: 12px var(--mono); fill: var(--muted); }
    .button { fill: var(--card); stroke: var(--line); }
    .chip { fill: var(--shell); stroke: var(--line); }
    .shadow { filter: drop-shadow(0 18px 24px var(--shadow)); }
  </style>

  <rect class="bg" width="1440" height="980"/>
  <rect x="26" y="22" width="1388" height="936" rx="34" class="shell shadow"/>

  <rect x="54" y="50" width="1332" height="64" rx="22" class="panel"/>
  <text x="88" y="88" class="h2">genie review studio</text>
  <text x="248" y="88" class="tiny">project: billing settings card pack</text>
  <rect x="758" y="66" width="74" height="30" rx="15" class="chip"/>
  <text x="795" y="86" text-anchor="middle" class="small">Reload</text>
  <rect x="844" y="66" width="118" height="30" rx="15" class="chip"/>
  <text x="903" y="86" text-anchor="middle" class="small">02 cards / 4</text>
  <rect x="974" y="66" width="82" height="30" rx="15" class="chip"/>
  <text x="1015" y="86" text-anchor="middle" class="small">Mark up</text>
  <rect x="1068" y="66" width="86" height="30" rx="15" class="chip"/>
  <text x="1111" y="86" text-anchor="middle" class="small">Comments</text>
  <rect x="1166" y="66" width="68" height="30" rx="15" class="chip"/>
  <text x="1200" y="86" text-anchor="middle" class="small">Tweaks</text>
  <rect x="1246" y="66" width="62" height="30" rx="15" class="chip"/>
  <text x="1277" y="86" text-anchor="middle" class="small">Zoom</text>
  <rect x="1320" y="66" width="44" height="30" rx="15" class="button"/>
  <text x="1342" y="86" text-anchor="middle" class="small">R</text>

  <rect x="54" y="138" width="260" height="740" rx="28" class="panel"/>
  <text x="84" y="178" class="h2">Pages and files</text>
  <rect x="84" y="206" width="198" height="38" rx="19" class="chip"/>
  <text x="183" y="230" text-anchor="middle" class="small">New blank page</text>
  <rect x="84" y="266" width="198" height="54" rx="17" class="card"/>
  <text x="106" y="296" class="h3">01 overview</text>
  <text x="106" y="314" class="small">edited 3m ago</text>
  <rect x="84" y="334" width="198" height="54" rx="17" class="card-strong"/>
  <text x="106" y="364" class="h3">02 cards</text>
  <text x="106" y="382" class="small">selected</text>
  <rect x="84" y="402" width="198" height="54" rx="17" class="card"/>
  <text x="106" y="432" class="h3">03 validation</text>
  <text x="106" y="450" class="small">ui:// evidence</text>
  <rect x="84" y="470" width="198" height="54" rx="17" class="card"/>
  <text x="106" y="500" class="h3">All project files</text>
  <text x="106" y="518" class="small">generated + source</text>

  <text x="84" y="574" class="h2">Chat history</text>
  <rect x="84" y="602" width="198" height="82" rx="18" class="card"/>
  <text x="106" y="630" class="h3">Refine request</text>
  <text x="106" y="652" class="body">"tighten hierarchy"</text>
  <text x="106" y="672" class="small">2 min ago</text>
  <rect x="84" y="700" width="198" height="108" rx="18" class="card"/>
  <text x="106" y="728" class="h3">Session limit state</text>
  <text x="106" y="752" class="body">Preview stays usable</text>
  <text x="106" y="772" class="body">with debug info and</text>
  <text x="106" y="792" class="body">report action visible.</text>

  <rect x="342" y="138" width="700" height="740" rx="30" class="shell"/>
  <text x="376" y="182" class="h1">Preview, annotate, then send a precise refine.</text>
  <text x="376" y="212" class="body">This option makes the review surface primary: ideal when generated cards need approval, comments, and evidence.</text>

  <rect x="376" y="252" width="292" height="200" rx="24" class="card-strong"/>
  <text x="404" y="288" class="h3">BillingSettings.tsx</text>
  <rect x="404" y="314" width="88" height="54" rx="14" class="panel"/>
  <rect x="510" y="314" width="116" height="54" rx="14" class="panel"/>
  <line x1="404" y1="394" x2="626" y2="394" class="line" stroke-width="2"/>
  <circle cx="640" cy="274" r="14" class="accent"/>
  <text x="640" y="279" text-anchor="middle" class="on-accent" font-family="Inter, ui-sans-serif, system-ui" font-size="11" font-weight="700">1</text>

  <rect x="704" y="252" width="292" height="200" rx="24" class="card"/>
  <text x="732" y="288" class="h3">UsageEmpty.tsx</text>
  <rect x="770" y="324" width="150" height="18" rx="9" class="panel"/>
  <rect x="794" y="358" width="104" height="12" rx="6" class="panel"/>
  <rect x="810" y="390" width="72" height="22" rx="11" class="soft"/>

  <rect x="376" y="480" width="292" height="200" rx="24" class="card"/>
  <text x="404" y="516" class="h3">PlanCompare.tsx</text>
  <rect x="412" y="548" width="54" height="78" rx="12" class="panel"/>
  <rect x="486" y="530" width="62" height="96" rx="12" class="soft"/>
  <rect x="568" y="562" width="54" height="64" rx="12" class="panel"/>

  <rect x="704" y="480" width="292" height="200" rx="24" class="card"/>
  <text x="732" y="516" class="h3">InvoiceRow.tsx</text>
  <line x1="732" y1="548" x2="956" y2="548" class="line" stroke-width="2"/>
  <line x1="732" y1="588" x2="956" y2="588" class="line" stroke-width="2"/>
  <line x1="732" y1="628" x2="956" y2="628" class="line" stroke-width="2"/>
  <circle cx="972" cy="510" r="14" class="accent"/>
  <text x="972" y="515" text-anchor="middle" class="on-accent" font-family="Inter, ui-sans-serif, system-ui" font-size="11" font-weight="700">2</text>

  <rect x="376" y="710" width="620" height="112" rx="24" class="panel"/>
  <text x="404" y="746" class="h2">Refine composer</text>
  <text x="404" y="776" class="body">Use comments 1 and 2: make payment status scannable, add disabled invoice action state.</text>
  <rect x="848" y="762" width="112" height="36" rx="18" class="accent"/>
  <text x="904" y="786" text-anchor="middle" class="on-accent" font-family="Inter, ui-sans-serif, system-ui" font-size="13" font-weight="750">Refine</text>

  <rect x="1070" y="138" width="316" height="740" rx="28" class="panel"/>
  <text x="1100" y="178" class="h2">Review panel</text>
  <rect x="1100" y="208" width="254" height="120" rx="20" class="card"/>
  <text x="1124" y="240" class="h3">Comment 1</text>
  <text x="1124" y="266" class="body">Payment method block reads as</text>
  <text x="1124" y="286" class="body">two unrelated controls.</text>
  <text x="1124" y="310" class="small">Action: refine selected card</text>
  <rect x="1100" y="350" width="254" height="120" rx="20" class="card"/>
  <text x="1124" y="382" class="h3">Comment 2</text>
  <text x="1124" y="408" class="body">Invoice row needs disabled and</text>
  <text x="1124" y="428" class="body">loading action evidence.</text>
  <text x="1124" y="452" class="small">Action: add state variant</text>

  <rect x="1100" y="500" width="254" height="162" rx="20" class="card"/>
  <text x="1124" y="532" class="h3">Validation evidence</text>
  <text x="1124" y="558" class="mono">@genie line 1</text>
  <text x="1124" y="582" class="mono">CSP default-src none</text>
  <text x="1124" y="606" class="mono">connect-src none</text>
  <text x="1124" y="630" class="mono">byte match: 3 vehicles</text>

  <rect x="1100" y="690" width="254" height="126" rx="20" class="card"/>
  <text x="1124" y="722" class="h3">Debug and limits</text>
  <text x="1124" y="748" class="body">If generation pauses, preview</text>
  <text x="1124" y="768" class="body">remains inspectable; debug info</text>
  <text x="1124" y="788" class="body">is one click away.</text>

  <text x="54" y="918" class="tiny">Hallmark stamp: Review Studio / N8 / Ft4 / critique: strongest for QA, comments, and approval; less ideal as the default empty start.</text>
</svg>
