<svg xmlns="http://www.w3.org/2000/svg" width="1440" height="980" viewBox="0 0 1440 980" font-family="'Space Grotesk','Inter',sans-serif">
<!-- Hallmark · genie (Drafting Room) · genre: engineering drawing sheet · pre-emit critique: P5 H5 E5 S5 R5 V5 · surface intent: UI-kit browser reimagined as a drafting board — the selected component is the ARTIFACT drawn as measured elevations with callout balloons, the kit is a numbered BILL OF MATERIALS, and the @genie spec + files sit in a bottom-right TITLE BLOCK. No tree-left/detail-right; layout diverges from D1. -->
<defs>
  <pattern id="grid2" width="16" height="16" patternUnits="userSpaceOnUse"><path d="M16 0H0V16" fill="none" stroke="#dde3eb" stroke-width="1"/></pattern>
  <linearGradient id="clay0" x1="0" y1="0" x2="0" y2="1"><stop offset="0" stop-color="#cf8265"/><stop offset="1" stop-color="#bd6a4c"/></linearGradient>
  <linearGradient id="mark2" x1="0" y1="0" x2="1" y2="1"><stop offset="0" stop-color="#cf8265"/><stop offset="1" stop-color="#ac5a40"/></linearGradient>
  <filter id="soft2" x="-20%" y="-20%" width="140%" height="140%"><feDropShadow dx="0" dy="2" stdDeviation="6" flood-color="#1b2a44" flood-opacity="0.10"/></filter>
  <filter id="lift2" x="-30%" y="-30%" width="160%" height="160%"><feDropShadow dx="0" dy="6" stdDeviation="16" flood-color="#1b2a44" flood-opacity="0.15"/></filter>
  <clipPath id="sheetClip"><rect x="24" y="68" width="1392" height="888"/></clipPath>
</defs>

<rect width="1440" height="980" fill="#e6eaf0"/>

<!-- top bar -->
<rect x="0" y="0" width="1440" height="52" fill="#ebeef3"/>
<line x1="0" y1="52" x2="1440" y2="52" stroke="#d3dae3" stroke-width="1"/>
<g transform="translate(24,16)">
  <rect x="0" y="0" width="22" height="22" rx="4" fill="url(#mark2)"/>
  <path d="M5 17 L5 6 L16 6" fill="none" stroke="#fbe7dd" stroke-width="1.6" stroke-linecap="round"/>
  <path d="M5 6 L16 17" stroke="#fbe7dd" stroke-width="1.6" stroke-linecap="round"/>
  <text x="32" y="16" font-size="15" font-weight="600" fill="#14171f" letter-spacing="-0.01em">genie</text>
  <text x="74" y="16" font-family="'JetBrains Mono',monospace" font-size="12.5" fill="#697384">· Quanta UI Kit ▾</text>
</g>
<g transform="translate(470,15)">
  <rect x="0" y="0" width="120" height="24" rx="4" fill="#ffffff" stroke="#bcc5d2"/>
  <text x="16" y="16" font-size="12.5" font-weight="600" fill="#14171f">UI Kit</text>
  <text x="132" y="16" font-family="'JetBrains Mono',monospace" font-size="12" fill="#697384">primitives / Button</text>
</g>
<g transform="translate(1416,16)" text-anchor="end">
  <rect x="-232" y="-1" width="232" height="24" rx="4" fill="#e2e7ee" stroke="#bcc5d2" stroke-width="1"/>
  <circle cx="-214" cy="11" r="3" fill="#2f8f57"/>
  <text x="-202" y="15" font-family="'JetBrains Mono',monospace" font-size="11.5" fill="#39414f">harness-native · no app to open</text>
</g>

<!-- drafting sheet -->
<rect x="24" y="68" width="1392" height="888" fill="#f4f6f9" stroke="#bcc5d2" stroke-width="1.2" filter="url(#lift2)"/>
<g clip-path="url(#sheetClip)"><rect x="24" y="68" width="1392" height="888" fill="url(#grid2)"/></g>
<rect x="44" y="88" width="1352" height="848" fill="none" stroke="#345197" stroke-width="1.3"/>
<g stroke="#345197" stroke-width="1.3">
  <path d="M44 112 L44 88 L68 88" fill="none"/><path d="M1372 88 L1396 88 L1396 112" fill="none"/>
  <path d="M44 912 L44 936 L68 936" fill="none"/><path d="M1372 936 L1396 936 L1396 912" fill="none"/>
</g>

<!-- sheet label + component title -->
<text x="68" y="124" font-family="'JetBrains Mono',monospace" font-size="12" fill="#5a6477" letter-spacing="0.04em">QUANTA UI KIT · SHEET C-07 · primitives / Button · SCALE 1:1</text>
<text x="66" y="174" font-size="42" font-weight="600" fill="#14171f" letter-spacing="-0.02em">Button</text>
<g transform="translate(200,150)">
  <rect x="0" y="0" width="92" height="24" rx="4" fill="#e2e9f5" stroke="#bdcae6"/>
  <text x="14" y="16" font-family="'JetBrains Mono',monospace" font-size="11" fill="#27407a">primitives</text>
  <rect x="104" y="0" width="100" height="24" rx="4" fill="#d7eede" stroke="#aed4bd"/>
  <text x="116" y="16" font-family="'JetBrains Mono',monospace" font-size="11" fill="#226b40">✓ validated</text>
</g>
<text x="68" y="210" font-family="'Inter',sans-serif" font-size="15.5" fill="#39414f">The primary action element. Four variants, eight states each — real upstream code from @quanta/dashboard-ui.</text>
<line x1="64" y1="232" x2="1376" y2="232" stroke="#d3dae3" stroke-width="1"/>

<!-- LEFT MARGIN · BILL OF MATERIALS -->
<g transform="translate(64,256)">
  <rect x="0" y="0" width="232" height="644" rx="3" fill="#ffffff" stroke="#d3dae3" stroke-width="1"/>
  <rect x="0" y="0" width="232" height="38" fill="#ebeef3"/>
  <line x1="0" y1="38" x2="232" y2="38" stroke="#345197" stroke-width="1.1"/>
  <text x="14" y="24" font-family="'JetBrains Mono',monospace" font-size="11" fill="#27407a" letter-spacing="0.05em">BILL OF MATERIALS</text>
  <!-- column heads -->
  <text x="14" y="58" font-family="'JetBrains Mono',monospace" font-size="9.5" fill="#8a93a1">NO.</text>
  <text x="46" y="58" font-family="'JetBrains Mono',monospace" font-size="9.5" fill="#8a93a1">COMPONENT</text>
  <text x="218" y="58" font-family="'JetBrains Mono',monospace" font-size="9.5" fill="#8a93a1" text-anchor="end">VAR</text>
  <line x1="0" y1="66" x2="232" y2="66" stroke="#e2e7ee" stroke-width="1"/>
  <line x1="38" y1="38" x2="38" y2="644" stroke="#eef1f5" stroke-width="1"/>
  <g font-family="'Inter',sans-serif" font-size="12.5" fill="#39414f">
    <text x="46" y="86" font-family="'JetBrains Mono',monospace" font-size="11" font-weight="600" fill="#27407a">brand · 3</text>
    <text x="12" y="108" font-family="'JetBrains Mono',monospace" font-size="10" fill="#8a93a1">01</text><text x="46" y="108">BrandMark</text>
    <text x="12" y="130" font-family="'JetBrains Mono',monospace" font-size="10" fill="#8a93a1">02</text><text x="46" y="130">QGrid</text>
    <text x="12" y="152" font-family="'JetBrains Mono',monospace" font-size="10" fill="#8a93a1">03</text><text x="46" y="152">QMonogram</text>
    <text x="46" y="178" font-family="'JetBrains Mono',monospace" font-size="11" font-weight="600" fill="#27407a">dataviz · 4</text>
    <text x="12" y="200" font-family="'JetBrains Mono',monospace" font-size="10" fill="#8a93a1">04</text><text x="46" y="200">AgentCard</text>
    <text x="12" y="222" font-family="'JetBrains Mono',monospace" font-size="10" fill="#8a93a1">05</text><text x="46" y="222">BarMeter</text>
    <text x="12" y="244" font-family="'JetBrains Mono',monospace" font-size="10" fill="#8a93a1">06</text><text x="46" y="244">DonutChart</text>
    <text x="12" y="266" font-family="'JetBrains Mono',monospace" font-size="10" fill="#8a93a1">07</text><text x="46" y="266">StatCell</text>
    <text x="46" y="292" font-family="'JetBrains Mono',monospace" font-size="11" font-weight="600" fill="#27407a">nav · 3</text>
    <text x="12" y="314" font-family="'JetBrains Mono',monospace" font-size="10" fill="#8a93a1">08</text><text x="46" y="314">NavItem</text>
    <text x="12" y="336" font-family="'JetBrains Mono',monospace" font-size="10" fill="#8a93a1">09</text><text x="46" y="336">SidebarToggle</text>
    <text x="12" y="358" font-family="'JetBrains Mono',monospace" font-size="10" fill="#8a93a1">10</text><text x="46" y="358">WorkspaceSwitcher</text>
    <text x="46" y="384" font-family="'JetBrains Mono',monospace" font-size="11" font-weight="600" fill="#27407a">primitives · 8</text>
    <text x="12" y="406" font-family="'JetBrains Mono',monospace" font-size="10" fill="#8a93a1">11</text><text x="46" y="406">Badge</text>
    <!-- Button selected row -->
    <rect x="2" y="416" width="228" height="24" rx="3" fill="#f3ddd2"/>
    <text x="12" y="432" font-family="'JetBrains Mono',monospace" font-size="10" fill="#ac5a40">12</text><text x="46" y="432" font-weight="700" fill="#14171f">Button</text><text x="218" y="432" font-family="'JetBrains Mono',monospace" font-size="10" fill="#ac5a40" text-anchor="end">4</text>
    <text x="12" y="458" font-family="'JetBrains Mono',monospace" font-size="10" fill="#8a93a1">13</text><text x="46" y="458">Card</text>
    <text x="12" y="480" font-family="'JetBrains Mono',monospace" font-size="10" fill="#8a93a1">14</text><text x="46" y="480">FormField</text>
    <text x="12" y="502" font-family="'JetBrains Mono',monospace" font-size="10" fill="#8a93a1">15</text><text x="46" y="502">Pill</text>
    <text x="12" y="524" font-family="'JetBrains Mono',monospace" font-size="10" fill="#8a93a1">16</text><text x="46" y="524">SearchInput</text>
    <text x="12" y="546" font-family="'JetBrains Mono',monospace" font-size="10" fill="#8a93a1">17</text><text x="46" y="546">StatusDot</text>
    <text x="12" y="568" font-family="'JetBrains Mono',monospace" font-size="10" fill="#8a93a1">18</text><text x="46" y="568">Table</text>
  </g>
  <line x1="0" y1="606" x2="232" y2="606" stroke="#e2e7ee" stroke-width="1"/>
  <text x="14" y="628" font-family="'JetBrains Mono',monospace" font-size="10.5" fill="#697384">18 of 30 · 4 groups · ✓ synced</text>
</g>

<!-- CENTER · VARIANTS as measured elevations with callout balloons -->
<text x="340" y="280" font-family="'JetBrains Mono',monospace" font-size="12" fill="#27407a" letter-spacing="0.05em">VARIANTS · MEASURED ELEVATIONS</text>
<text x="1376" y="280" font-family="'JetBrains Mono',monospace" font-size="10.5" fill="#5a6477" text-anchor="end">sandboxed · 180 × 56</text>
<g>
  <!-- ① primary (clay = generate-able) -->
  <circle cx="461" cy="304" r="11" fill="#ffffff" stroke="#345197" stroke-width="1.2"/><text x="461" y="308" text-anchor="middle" font-family="'JetBrains Mono',monospace" font-size="11" fill="#27407a">1</text>
  <line x1="461" y1="315" x2="461" y2="322" stroke="#8ba0c9" stroke-width="1"/>
  <g filter="url(#lift2)"><rect x="371" y="324" width="180" height="56" rx="6" fill="url(#clay0)" stroke="#ac5a40" stroke-width="1"/><line x1="383" y1="325.5" x2="539" y2="325.5" stroke="#ecb6a0" stroke-width="1.4"/><text x="461" y="358" text-anchor="middle" font-size="16" font-weight="700" fill="#1a0f0a">Primary</text></g>
  <g stroke="#8ba0c9" stroke-width="1"><line x1="371" y1="394" x2="371" y2="404"/><line x1="551" y1="394" x2="551" y2="404"/><line x1="371" y1="399" x2="430" y2="399"/><line x1="492" y1="399" x2="551" y2="399"/><path d="M374 396 L368 399 L374 402 Z" fill="#8ba0c9" stroke="none"/><path d="M548 396 L554 399 L548 402 Z" fill="#8ba0c9" stroke="none"/></g>
  <text x="461" y="403" text-anchor="middle" font-family="'JetBrains Mono',monospace" font-size="10" fill="#5a6477">180 × 56</text>
  <text x="461" y="424" text-anchor="middle" font-family="'JetBrains Mono',monospace" font-size="11" font-weight="600" fill="#ac5a40">primary · ✦ generate</text>

  <!-- ② secondary -->
  <circle cx="711" cy="304" r="11" fill="#ffffff" stroke="#345197" stroke-width="1.2"/><text x="711" y="308" text-anchor="middle" font-family="'JetBrains Mono',monospace" font-size="11" fill="#27407a">2</text>
  <line x1="711" y1="315" x2="711" y2="322" stroke="#8ba0c9" stroke-width="1"/>
  <g filter="url(#soft2)"><rect x="621" y="324" width="180" height="56" rx="6" fill="#ffffff" stroke="#bcc5d2"/><text x="711" y="358" text-anchor="middle" font-size="16" font-weight="600" fill="#14171f">Secondary</text></g>
  <text x="711" y="403" text-anchor="middle" font-family="'JetBrains Mono',monospace" font-size="10" fill="#5a6477">180 × 56</text>
  <text x="711" y="424" text-anchor="middle" font-family="'JetBrains Mono',monospace" font-size="11" fill="#697384">secondary</text>

  <!-- ③ ghost (ink-blue) -->
  <circle cx="961" cy="304" r="11" fill="#ffffff" stroke="#345197" stroke-width="1.2"/><text x="961" y="308" text-anchor="middle" font-family="'JetBrains Mono',monospace" font-size="11" fill="#27407a">3</text>
  <line x1="961" y1="315" x2="961" y2="322" stroke="#8ba0c9" stroke-width="1"/>
  <rect x="871" y="324" width="180" height="56" rx="6" fill="none" stroke="#8ba0c9" stroke-width="1.2" stroke-dasharray="4 3"/>
  <text x="961" y="358" text-anchor="middle" font-size="16" font-weight="600" fill="#345197">Ghost</text>
  <text x="961" y="403" text-anchor="middle" font-family="'JetBrains Mono',monospace" font-size="10" fill="#5a6477">180 × 56</text>
  <text x="961" y="424" text-anchor="middle" font-family="'JetBrains Mono',monospace" font-size="11" fill="#697384">ghost · ink-blue</text>

  <!-- ④ danger -->
  <circle cx="1201" cy="304" r="11" fill="#ffffff" stroke="#345197" stroke-width="1.2"/><text x="1201" y="308" text-anchor="middle" font-family="'JetBrains Mono',monospace" font-size="11" fill="#27407a">4</text>
  <line x1="1201" y1="315" x2="1201" y2="322" stroke="#8ba0c9" stroke-width="1"/>
  <g filter="url(#soft2)"><rect x="1121" y="324" width="160" height="56" rx="6" fill="#c5403a"/><text x="1201" y="358" text-anchor="middle" font-size="16" font-weight="600" fill="#ffffff">Delete</text></g>
  <text x="1201" y="403" text-anchor="middle" font-family="'JetBrains Mono',monospace" font-size="10" fill="#5a6477">160 × 56</text>
  <text x="1201" y="424" text-anchor="middle" font-family="'JetBrains Mono',monospace" font-size="11" fill="#697384">danger</text>
</g>
<!-- band dimension + baseline -->
<line x1="352" y1="444" x2="1360" y2="444" stroke="#d3dae3" stroke-width="1"/>
<text x="356" y="462" font-family="'JetBrains Mono',monospace" font-size="10" fill="#8a93a1">baseline · 8pt grid · radius var(--radius-md) · 4 variants × 8 states = 32 renders</text>

<!-- BOTTOM-LEFT · the @genie marker spec note -->
<g transform="translate(340,486)">
  <text x="0" y="0" font-family="'JetBrains Mono',monospace" font-size="12" fill="#27407a" letter-spacing="0.05em">THE @genie MARKER</text>
  <g transform="translate(0,14)"><path d="M0 8 a3 3 0 0 1 3 -3 h140 a3 3 0 0 1 3 3 v6 h-146 z" fill="#e2e7ee" stroke="#bcc5d2"/><text x="12" y="11" font-family="'JetBrains Mono',monospace" font-size="10.5" fill="#27407a">Button.html</text></g>
  <rect x="0" y="28" width="496" height="120" rx="3" fill="#ffffff" stroke="#d3dae3"/>
  <rect x="0" y="28" width="34" height="120" fill="#f1f4f8"/><line x1="34" y1="28" x2="34" y2="148" stroke="#e2e7ee"/>
  <g font-family="'JetBrains Mono',monospace" font-size="10.5" fill="#9aa3b1" text-anchor="end"><text x="26" y="52">1</text><text x="26" y="74">2</text><text x="26" y="96">3</text><text x="26" y="118">4</text></g>
  <g font-family="'JetBrains Mono',monospace" font-size="12">
    <text x="46" y="52" fill="#697384">&lt;!-- <tspan fill="#345197" font-weight="700">@genie</tspan> group=<tspan fill="#226b40">"primitives"</tspan></text>
    <text x="46" y="74" fill="#697384">          viewport=<tspan fill="#226b40">"180x56"</tspan> --&gt;</text>
    <text x="46" y="96"><tspan fill="#39414f">&lt;button class=</tspan><tspan fill="#226b40">"ds-btn ds-btn--primary"</tspan>&gt;</text>
    <text x="46" y="118" fill="#39414f">  Primary&lt;/button&gt;</text>
  </g>
  <line x1="0" y1="148" x2="496" y2="148" stroke="#d3dae3"/>
  <rect x="0" y="148" width="496" height="26" fill="#f3ddd2"/>
  <text x="14" y="165" font-family="'JetBrains Mono',monospace" font-size="10.5" fill="#ac5a40">✓ genie's regex matches — this preview becomes a card</text>
</g>

<!-- BOTTOM-RIGHT · TITLE BLOCK (specification) -->
<g transform="translate(868,478)">
  <rect x="0" y="8" width="508" height="386" rx="3" fill="#ffffff" stroke="#345197" stroke-width="1.5" filter="url(#soft2)"/>
  <rect x="0" y="8" width="508" height="30" fill="#e7ecf4"/>
  <line x1="0" y1="38" x2="508" y2="38" stroke="#345197" stroke-width="1.2"/>
  <text x="14" y="28" font-family="'JetBrains Mono',monospace" font-size="11" fill="#27407a" letter-spacing="0.05em">TITLE BLOCK · SPECIFICATION</text>
  <text x="494" y="28" font-family="'JetBrains Mono',monospace" font-size="10.5" fill="#5a6477" text-anchor="end">SHEET C-07</text>
  <!-- FILES parts list -->
  <text x="14" y="60" font-family="'JetBrains Mono',monospace" font-size="10" fill="#5a6477" letter-spacing="0.05em">FILES</text>
  <g font-family="'JetBrains Mono',monospace" font-size="12.5">
    <rect x="14" y="68" width="480" height="32" rx="4" fill="#f4f6f9" stroke="#d3dae3"/>
    <text x="26" y="88" fill="#27407a">▸ Button.prompt.md</text><text x="482" y="88" text-anchor="end" font-size="11" fill="#697384">example + variants</text>
    <rect x="14" y="106" width="480" height="32" rx="4" fill="#f4f6f9" stroke="#d3dae3"/>
    <text x="26" y="126" fill="#27407a">▸ Button.d.ts</text><text x="482" y="126" text-anchor="end" font-size="11" fill="#697384">API contract</text>
    <rect x="14" y="144" width="480" height="32" rx="4" fill="#f3ddd2" stroke="#ecb6a0"/>
    <text x="26" y="164" fill="#ac5a40">▾ Button.html</text><text x="482" y="164" text-anchor="end" font-size="11" fill="#ac5a40">open · @genie ✓</text>
  </g>
  <!-- metadata cells -->
  <line x1="0" y1="194" x2="508" y2="194" stroke="#345197" stroke-width="1.1"/>
  <g font-family="'JetBrains Mono',monospace">
    <line x1="127" y1="194" x2="127" y2="254" stroke="#e2e7ee"/><line x1="254" y1="194" x2="254" y2="254" stroke="#e2e7ee"/><line x1="381" y1="194" x2="381" y2="254" stroke="#e2e7ee"/>
    <text x="14" y="214" font-size="9.5" fill="#5a6477">GROUP</text><text x="14" y="236" font-size="13" fill="#14171f">primitives</text>
    <text x="141" y="214" font-size="9.5" fill="#5a6477">VIEWPORT</text><text x="141" y="236" font-size="13" fill="#14171f">180×56</text>
    <text x="268" y="214" font-size="9.5" fill="#5a6477">STATES</text><text x="268" y="236" font-size="13" fill="#14171f">8</text>
    <text x="395" y="214" font-size="9.5" fill="#5a6477">CHECK</text><text x="395" y="236" font-size="13" fill="#226b40">✓ valid</text>
  </g>
  <line x1="0" y1="254" x2="508" y2="254" stroke="#e2e7ee" stroke-width="1"/>
  <!-- refine -->
  <text x="14" y="286" font-size="17" font-weight="600" fill="#14171f">Refine this component</text>
  <text x="14" y="310" font-family="'Inter',sans-serif" font-size="12.5" fill="#39414f">Open it in the preview to tweak, or ask in the harness chat:</text>
  <text x="14" y="328" font-family="'JetBrains Mono',monospace" font-size="12" fill="#697384">"make Button/Primary tighter."</text>
  <rect x="14" y="342" width="480" height="40" rx="6" fill="url(#clay0)" stroke="#ac5a40" stroke-width="1"/>
  <text x="254" y="367" text-anchor="middle" font-size="15" font-weight="600" fill="#1a0f0a">✦  Open in preview  →</text>
</g>

<text x="24" y="973" font-family="'JetBrains Mono',monospace" font-size="11.5" fill="#697384">genie · UI-kit browser · component drawn to spec · surface 1 / 4</text>
<text x="1416" y="973" font-family="'JetBrains Mono',monospace" font-size="11.5" fill="#8a93a1" text-anchor="end">Drafting Room · title-block layout</text>
</svg>
