<svg xmlns="http://www.w3.org/2000/svg" width="1440" height="980" viewBox="0 0 1440 980" font-family="'Space Grotesk','Inter',sans-serif">
<!-- Hallmark · genie (Drafting Room) · genre: engineering-title-block · pre-emit critique: P5 H5 E5 S5 R5 V5
     Surface 2 (preview + refine) — title-block archetype. The harness is GHOSTED on the left with a
     visible seam (hard rule). genie's side is one continuous drafting sheet: the generated artifact is
     drawn as a MEASURED ELEVATION (dimension lines + registration ticks + callout balloon), the states
     run along a measured baseline, the code is a spec note bottom-left, and D1's separate "adjust rail"
     is DISSOLVED into a bottom-right TITLE BLOCK of editable spec cells. Cool-grey paper · ink-blue lead
     · Space Grotesk · crisp clay, generate/refine only. -->
  <defs>
    <linearGradient id="clay0" x1="0" y1="0" x2="0" y2="1"><stop offset="0" stop-color="#cf8265"/><stop offset="1" stop-color="#bd6a4c"/></linearGradient>
    <linearGradient id="clayH" x1="0" y1="0" x2="0" y2="1"><stop offset="0" stop-color="#c2734f"/><stop offset="1" stop-color="#aa5a3d"/></linearGradient>
    <linearGradient id="mark2" x1="0" y1="0" x2="1" y2="1"><stop offset="0" stop-color="#cf8265"/><stop offset="1" stop-color="#ac5a40"/></linearGradient>
    <filter id="soft2" x="-20%" y="-20%" width="140%" height="140%"><feDropShadow dx="0" dy="2" stdDeviation="6" flood-color="#1b2a44" flood-opacity="0.10"/></filter>
    <filter id="lift2" x="-50%" y="-50%" width="200%" height="200%"><feDropShadow dx="0" dy="6" stdDeviation="16" flood-color="#1b2a44" flood-opacity="0.15"/></filter>
    <pattern id="grid2" width="16" height="16" patternUnits="userSpaceOnUse"><path d="M16 0H0V16" fill="none" stroke="#dde3eb" stroke-width="1"/></pattern>
    <pattern id="harnessHatch" width="8" height="8" patternUnits="userSpaceOnUse" patternTransform="rotate(45)"><rect width="8" height="8" fill="#eef1f5"/><line x1="0" y1="0" x2="0" y2="8" stroke="#dde3eb" stroke-width="3"/></pattern>
    <clipPath id="sheetClip"><rect x="36" y="80" width="1008" height="844"/></clipPath>
  </defs>

  <rect width="1440" height="980" fill="#e6eaf0"/>

  <!-- ════ LEFT: HARNESS chat rail · GHOSTED · the seam ════ -->
  <g>
    <rect width="360" height="980" fill="url(#harnessHatch)"/>
    <line x1="360" y1="0" x2="360" y2="980" stroke="#bcc5d2" stroke-width="2" stroke-dasharray="2 4"/>
    <!-- host ownership banner (kept dark — it's host chrome, not genie's) -->
    <g transform="translate(20,20)">
      <rect width="320" height="44" rx="6" fill="#14171f"/>
      <line x1="10" y1="1" x2="310" y2="1" stroke="#39414f" stroke-width="1" opacity="0.6"/>
      <circle cx="24" cy="22" r="9" fill="#2f8f57"/><path d="M20 22 l3 3 l6 -6" stroke="#14171f" stroke-width="1.6" fill="none" stroke-linecap="round" stroke-linejoin="round"/>
      <text x="42" y="19" font-size="12.5" font-weight="600" fill="#f4f6f9">Claude Code</text>
      <text x="42" y="35" font-family="'JetBrains Mono',monospace" font-size="10" fill="#9aa3b1">the harness · supplies the chat</text>
    </g>
    <!-- conversation (low-emphasis — genie does not own this) -->
    <g transform="translate(20,84)" opacity="0.9">
      <g><rect width="320" height="46" rx="6" fill="#e2e9f5"/><line x1="10" y1="1" x2="310" y2="1" stroke="#eef3ff" stroke-width="1"/><text x="16" y="22" font-size="13" fill="#14171f">generate a primary button for the</text><text x="16" y="40" font-size="13" fill="#14171f">acme kit — confident and warm</text></g>
      <g transform="translate(0,62)"><rect width="320" height="96" rx="6" fill="#ffffff" stroke="#d3dae3"/><line x1="10" y1="1" x2="310" y2="1" stroke="#ffffff" stroke-width="1"/>
        <g transform="translate(14,14)"><rect width="18" height="18" rx="4" fill="url(#mark2)"/><path d="M6 15 L6 6.5 L13.5 6.5" fill="none" stroke="#fbe7dd" stroke-width="1.3" stroke-linecap="round" stroke-linejoin="round"/><path d="M6 6.5 L13.5 15" fill="none" stroke="#fbe7dd" stroke-width="1.3" stroke-linecap="round"/></g>
        <text x="38" y="22" font-size="12" font-weight="600" fill="#14171f">Claude</text>
        <text x="14" y="46" font-size="12.5" fill="#39414f">Generated <tspan font-weight="600" fill="#14171f">Button / Primary</tspan> with</text>
        <text x="14" y="64" font-size="12.5" fill="#39414f">3 states. It's in the preview →</text>
        <text x="14" y="84" font-size="12.5" fill="#39414f">Tweak it, or tell me what to change.</text>
      </g>
      <g transform="translate(0,174)"><rect width="320" height="30" rx="5" fill="#ebeef3" stroke="#d3dae3"/><text x="14" y="20" font-family="'JetBrains Mono',monospace" font-size="10.5" fill="#ac5a40">✦ mcp__genie__generate_component</text></g>
      <g transform="translate(0,214)"><rect width="320" height="30" rx="5" fill="#ebeef3" stroke="#d3dae3"/><text x="14" y="20" font-family="'JetBrains Mono',monospace" font-size="10.5" fill="#697384">↳ wrote 4 files · ✓ @genie ok</text></g>
    </g>
    <g transform="translate(20,914)" opacity="0.9"><rect width="320" height="44" rx="6" fill="#ffffff" stroke="#d3dae3"/><text x="16" y="27" font-size="13" fill="#8a93a1">Message Claude…</text></g>
    <!-- the seam marker -->
    <g transform="translate(372,470)"><rect x="-4" width="8" height="40" rx="2" fill="#f3ddd2"/></g>
    <text x="384" y="486" font-family="'JetBrains Mono',monospace" font-size="10" fill="#ac5a40" transform="rotate(90 384 486)">▏ the seam: harness chat ╱ genie artifact</text>
  </g>

  <!-- ════ RIGHT: genie PREVIEW + REFINE · drafting sheet ════ -->
  <g transform="translate(360,0)">
    <!-- top bar (genie chrome) -->
    <rect width="1080" height="52" fill="#ebeef3"/>
    <line x1="0" y1="52" x2="1080" y2="52" stroke="#d3dae3"/>
    <g transform="translate(24,11)">
      <rect width="30" height="30" rx="6" fill="url(#mark2)" filter="url(#soft2)"/>
      <path d="M10 25 L10 11 L24 11" fill="none" stroke="#fbe7dd" stroke-width="2" stroke-linecap="round" stroke-linejoin="round"/>
      <path d="M10 11 L24 25" fill="none" stroke="#fbe7dd" stroke-width="2" stroke-linecap="round"/>
      <text x="44" y="14" font-family="'JetBrains Mono',monospace" font-size="12.5" fill="#14171f">Button / Primary</text>
      <text x="200" y="14" font-family="'JetBrains Mono',monospace" font-size="11" fill="#697384">primitives · 180×56</text>
    </g>
    <g transform="translate(556,18)" font-size="13">
      <text x="0" y="14" fill="#39414f">Comments</text>
      <rect x="84" y="-4" width="78" height="26" rx="4" fill="#f3ddd2" stroke="#ecb6a0"/>
      <text x="96" y="14" font-weight="600" fill="#14171f">✦ Tweaks</text>
      <text x="186" y="14" fill="#39414f">Code</text>
      <text x="240" y="14" fill="#39414f">Present</text>
    </g>
    <g transform="translate(872,16)"><rect width="118" height="28" rx="5" fill="#ffffff" stroke="#bcc5d2"/><text x="14" y="19" font-family="'JetBrains Mono',monospace" font-size="11" fill="#39414f">design-default ▾</text></g>
    <g transform="translate(1004,16)"><rect width="52" height="28" rx="5" fill="#14171f"/><text x="26" y="19" text-anchor="middle" font-size="13" font-weight="600" fill="#f4f6f9">Share</text></g>

    <!-- the drafting sheet -->
    <rect x="20" y="64" width="1040" height="876" rx="4" fill="#f4f6f9" filter="url(#lift2)"/>
    <rect x="36" y="80" width="1008" height="844" fill="url(#grid2)" clip-path="url(#sheetClip)"/>
    <rect x="36" y="80" width="1008" height="844" rx="2" fill="none" stroke="#345197" stroke-width="1.5"/>
    <!-- corner registration ticks -->
    <g stroke="#345197" stroke-width="1.5" fill="none">
      <path d="M36 96 L36 80 L52 80"/><path d="M1028 80 L1044 80 L1044 96"/>
      <path d="M36 908 L36 924 L52 924"/><path d="M1028 924 L1044 924 L1044 908"/>
    </g>

    <!-- ── band 1 · PREVIEW · MEASURED ELEVATION ── -->
    <text x="56" y="112" font-family="'JetBrains Mono',monospace" font-size="11" letter-spacing="0.04em" fill="#697384">PREVIEW · MEASURED ELEVATION · live render</text>
    <line x1="56" y1="122" x2="1024" y2="122" stroke="#e2e7ee"/>

    <!-- top dimension line (width 360) -->
    <g stroke="#8ba0c9" stroke-width="1">
      <line x1="180" y1="170" x2="180" y2="156"/><line x1="480" y1="170" x2="480" y2="156"/>
      <line x1="180" y1="160" x2="318" y2="160"/><line x1="342" y1="160" x2="480" y2="160"/>
    </g>
    <path d="M180 160 l8 -3 l0 6 z" fill="#8ba0c9"/><path d="M480 160 l-8 -3 l0 6 z" fill="#8ba0c9"/>
    <text x="330" y="164" text-anchor="middle" font-family="'JetBrains Mono',monospace" font-size="11" fill="#27407a">360</text>

    <!-- the generated artifact · clay (the generate output) -->
    <g transform="translate(180,176)">
      <!-- selection frame + registration corner ticks -->
      <rect x="-10" y="-10" width="320" height="94" fill="none" stroke="#345197" stroke-width="1" stroke-dasharray="4 3"/>
      <g stroke="#345197" stroke-width="1.5" fill="none">
        <path d="M-10 0 L-10 -10 L0 -10"/><path d="M300 -10 L310 -10 L310 0"/>
        <path d="M-10 74 L-10 84 L0 84"/><path d="M300 84 L310 84 L310 74"/>
      </g>
      <!-- button -->
      <g filter="url(#soft2)">
        <rect width="300" height="74" rx="5" fill="url(#clay0)"/>
        <line x1="10" y1="1.2" x2="290" y2="1.2" stroke="#ecb6a0" stroke-width="1.4"/>
        <text x="150" y="46" text-anchor="middle" font-family="'Inter',sans-serif" font-size="24" font-weight="700" fill="#1a0f0a" letter-spacing="-0.01em">Get started</text>
      </g>
      <!-- comment callout balloon -->
      <g transform="translate(286,-10)"><circle r="13" fill="#ffffff" stroke="#345197" stroke-width="1.5"/><text y="4" text-anchor="middle" font-size="12" font-weight="700" fill="#27407a">1</text></g>
    </g>

    <!-- right dimension line (height 88) -->
    <g stroke="#8ba0c9" stroke-width="1">
      <line x1="486" y1="176" x2="500" y2="176"/><line x1="486" y1="250" x2="500" y2="250"/>
      <line x1="493" y1="176" x2="493" y2="203"/><line x1="493" y1="223" x2="493" y2="250"/>
    </g>
    <path d="M493 176 l-3 8 l6 0 z" fill="#8ba0c9"/><path d="M493 250 l-3 -8 l6 0 z" fill="#8ba0c9"/>
    <text x="493" y="216" text-anchor="middle" font-family="'JetBrains Mono',monospace" font-size="11" fill="#27407a">88</text>

    <!-- comment note card (the popover, as a margin callout) -->
    <g transform="translate(540,170)">
      <rect width="252" height="86" rx="5" fill="#ffffff" stroke="#bcc5d2" filter="url(#soft2)"/>
      <line x1="10" y1="1" x2="242" y2="1" stroke="#ffffff"/>
      <g transform="translate(14,16)"><circle r="9" fill="#ffffff" stroke="#345197" stroke-width="1.4"/><text y="4" text-anchor="middle" font-size="10" font-weight="700" fill="#27407a">1</text></g>
      <text x="34" y="20" font-size="12.5" font-weight="600" fill="#14171f">You</text>
      <text x="14" y="44" font-size="12.5" fill="#39414f">tighter label, more confident</text>
      <g transform="translate(14,56)"><rect width="224" height="20" rx="4" fill="#f1f4f8"/><text x="10" y="14" font-size="11.5" fill="#697384">Reply, or ✦ ask Claude to apply…</text></g>
    </g>

    <!-- ground line + scale note -->
    <line x1="120" y1="290" x2="500" y2="290" stroke="#8ba0c9" stroke-width="1" stroke-dasharray="2 3"/>
    <text x="120" y="314" font-family="'JetBrains Mono',monospace" font-size="10.5" fill="#8a93a1">SCALE 1:1 · units px · projection: front elevation</text>

    <!-- ── band 2 · STATES · ELEVATION STRIP ── -->
    <text x="56" y="372" font-family="'JetBrains Mono',monospace" font-size="11" letter-spacing="0.04em" fill="#697384">STATES · ELEVATION STRIP · four conditions on one baseline</text>
    <line x1="56" y1="382" x2="1024" y2="382" stroke="#e2e7ee"/>
    <!-- measured baseline with station ticks -->
    <line x1="80" y1="476" x2="1000" y2="476" stroke="#8ba0c9" stroke-width="1"/>
    <g stroke="#8ba0c9" stroke-width="1"><line x1="80" y1="471" x2="80" y2="481"/><line x1="320" y1="471" x2="320" y2="481"/><line x1="560" y1="471" x2="560" y2="481"/><line x1="800" y1="471" x2="800" y2="481"/><line x1="1000" y1="471" x2="1000" y2="481"/></g>
    <!-- :hover -->
    <g transform="translate(80,408)"><rect width="150" height="50" rx="5" fill="url(#clayH)"/><line x1="10" y1="1.2" x2="140" y2="1.2" stroke="#dfa890" stroke-width="1.2" opacity="0.7"/><text x="75" y="31" text-anchor="middle" font-family="'Inter',sans-serif" font-size="15" font-weight="700" fill="#1a0f0a">Get started</text></g>
    <text x="155" y="498" text-anchor="middle" font-family="'JetBrains Mono',monospace" font-size="10" fill="#697384">:hover</text>
    <!-- :focus -->
    <g transform="translate(320,408)"><rect x="-3" y="-3" width="156" height="56" rx="7" fill="none" stroke="#345197" stroke-width="2"/><rect width="150" height="50" rx="5" fill="url(#clay0)"/><line x1="10" y1="1.2" x2="140" y2="1.2" stroke="#ecb6a0" stroke-width="1.2"/><text x="75" y="31" text-anchor="middle" font-family="'Inter',sans-serif" font-size="15" font-weight="700" fill="#1a0f0a">Get started</text></g>
    <text x="398" y="498" text-anchor="middle" font-family="'JetBrains Mono',monospace" font-size="10" fill="#697384">:focus-visible</text>
    <!-- [disabled] -->
    <g transform="translate(560,408)" opacity="0.4"><rect width="150" height="50" rx="5" fill="#c87c5e"/><text x="75" y="31" text-anchor="middle" font-family="'Inter',sans-serif" font-size="15" font-weight="700" fill="#1a0f0a">Get started</text></g>
    <text x="635" y="498" text-anchor="middle" font-family="'JetBrains Mono',monospace" font-size="10" fill="#697384">[disabled]</text>
    <!-- data-loading -->
    <g transform="translate(800,408)"><rect width="150" height="50" rx="5" fill="#f3ddd2" stroke="#ecb6a0"/><circle cx="32" cy="25" r="9" fill="none" stroke="#ac5a40" stroke-width="2" stroke-dasharray="34 14"/><text x="52" y="31" font-family="'Inter',sans-serif" font-size="15" font-weight="700" fill="#ac5a40">Loading</text></g>
    <text x="875" y="498" text-anchor="middle" font-family="'JetBrains Mono',monospace" font-size="10" fill="#697384">data-loading</text>

    <!-- ── band 3a · CODE spec note (bottom-left) ── -->
    <text x="56" y="560" font-family="'JetBrains Mono',monospace" font-size="11" letter-spacing="0.04em" fill="#697384">CODE · Button.tsx · spec note</text>
    <g transform="translate(56,572)">
      <!-- filename tab -->
      <path d="M0 12 a4 4 0 0 1 4 -4 h150 a4 4 0 0 1 4 4 v6 H0 z" fill="#e7ecf4" stroke="#bcc5d2"/>
      <text x="14" y="6" font-family="'JetBrains Mono',monospace" font-size="11" fill="#27407a">Button.tsx</text>
      <g transform="translate(0,18)">
        <rect width="520" height="288" rx="3" fill="#eef1f5" stroke="#bcc5d2"/>
        <rect width="40" height="288" rx="3" fill="#e2e7ee"/><line x1="40" y1="0" x2="40" y2="288" stroke="#d3dae3"/>
        <g font-family="'JetBrains Mono',monospace" font-size="11" fill="#9aa3b1" text-anchor="end">
          <text x="30" y="34">1</text><text x="30" y="58">2</text><text x="30" y="82">3</text><text x="30" y="106">4</text><text x="30" y="130">5</text><text x="30" y="154">6</text><text x="30" y="178">7</text><text x="30" y="202">8</text>
        </g>
        <g font-family="'JetBrains Mono',monospace" font-size="12">
          <text x="54" y="34"><tspan fill="#697384">// primitives/Button/Button.tsx</tspan></text>
          <text x="54" y="58"><tspan fill="#345197">import</tspan> <tspan fill="#14171f">{ tokens }</tspan> <tspan fill="#345197">from</tspan> <tspan fill="#226b40">"../../tokens"</tspan>;</text>
          <text x="54" y="106"><tspan fill="#345197">export function</tspan> <tspan fill="#14171f">Button</tspan>(<tspan fill="#39414f">{ variant=</tspan><tspan fill="#226b40">"primary"</tspan><tspan fill="#39414f">, ...p }</tspan>) {</text>
          <text x="54" y="130"><tspan fill="#345197">  return</tspan> <tspan fill="#39414f">&lt;button</tspan> <tspan fill="#ac5a40">className</tspan><tspan fill="#39414f">={</tspan><tspan fill="#226b40">`ds-btn ds-btn--${variant}`</tspan><tspan fill="#39414f">}</tspan></text>
          <text x="54" y="154"><tspan fill="#39414f">    style={{ borderRadius: </tspan><tspan fill="#ac5a40">"var(--radius-md)"</tspan> <tspan fill="#39414f">}}</tspan></text>
          <text x="54" y="178"><tspan fill="#39414f">    {...p} /&gt;;</tspan></text>
          <text x="54" y="202"><tspan fill="#39414f">}</tspan></text>
        </g>
        <line x1="40" y1="232" x2="520" y2="232" stroke="#d3dae3"/>
        <text x="54" y="258" font-family="'JetBrains Mono',monospace" font-size="11" fill="#697384">every value references a token —</text>
        <text x="54" y="276" font-family="'JetBrains Mono',monospace" font-size="11" fill="#697384">never an inline hex</text>
      </g>
    </g>

    <!-- ── band 3b · TITLE BLOCK (bottom-right) · adjust dissolved into spec cells ── -->
    <g transform="translate(624,560)">
      <rect width="400" height="318" rx="3" fill="#ffffff" stroke="#345197" stroke-width="1.5"/>
      <!-- header strip -->
      <rect width="400" height="34" fill="#e7ecf4"/>
      <line x1="0" y1="34" x2="400" y2="34" stroke="#345197" stroke-width="1.5"/>
      <text x="14" y="22" font-family="'JetBrains Mono',monospace" font-size="12" letter-spacing="0.06em" fill="#27407a">ADJUST · TITLE BLOCK</text>
      <text x="386" y="22" text-anchor="end" font-family="'JetBrains Mono',monospace" font-size="10" fill="#8a93a1">SHEET C-07 · REV C</text>

      <!-- spec parameter cells (label | slider | value) -->
      <g font-family="'Inter',sans-serif">
        <!-- corner radius (the active / generated parameter — clay) -->
        <g transform="translate(0,34)">
          <line x1="0" y1="50" x2="400" y2="50" stroke="#e2e7ee"/>
          <text x="14" y="22" font-size="13" font-weight="500" fill="#14171f">Corner radius</text>
          <rect x="150" y="14" width="180" height="6" rx="3" fill="#e2e7ee"/><rect x="150" y="14" width="78" height="6" rx="3" fill="url(#clayH)"/>
          <circle cx="228" cy="17" r="8" fill="#ffffff" stroke="#c87c5e" stroke-width="2.5" filter="url(#soft2)"/>
          <text x="386" y="22" text-anchor="end" font-family="'JetBrains Mono',monospace" font-size="12" fill="#ac5a40">6</text>
        </g>
        <!-- padding -->
        <g transform="translate(0,84)">
          <line x1="0" y1="50" x2="400" y2="50" stroke="#e2e7ee"/>
          <text x="14" y="22" font-size="13" font-weight="500" fill="#14171f">Padding · horizontal</text>
          <rect x="150" y="14" width="180" height="6" rx="3" fill="#e2e7ee"/><rect x="150" y="14" width="108" height="6" rx="3" fill="#345197"/>
          <circle cx="258" cy="17" r="8" fill="#ffffff" stroke="#345197" stroke-width="2.5"/>
          <text x="386" y="22" text-anchor="end" font-family="'JetBrains Mono',monospace" font-size="12" fill="#39414f">32</text>
        </g>
        <!-- label weight -->
        <g transform="translate(0,134)">
          <line x1="0" y1="50" x2="400" y2="50" stroke="#e2e7ee"/>
          <text x="14" y="22" font-size="13" font-weight="500" fill="#14171f">Label weight</text>
          <rect x="150" y="14" width="180" height="6" rx="3" fill="#e2e7ee"/><rect x="150" y="14" width="140" height="6" rx="3" fill="#345197"/>
          <circle cx="290" cy="17" r="8" fill="#ffffff" stroke="#345197" stroke-width="2.5"/>
          <text x="386" y="22" text-anchor="end" font-family="'JetBrains Mono',monospace" font-size="12" fill="#39414f">700</text>
        </g>
        <!-- surface swatches + REV note (two cells side by side) -->
        <g transform="translate(0,184)">
          <line x1="0" y1="64" x2="400" y2="64" stroke="#e2e7ee"/>
          <line x1="150" y1="0" x2="150" y2="64" stroke="#e2e7ee"/>
          <text x="14" y="22" font-size="13" font-weight="500" fill="#14171f">Surface</text>
          <g transform="translate(14,32)">
            <rect width="22" height="22" rx="4" fill="url(#clay0)" stroke="#345197" stroke-width="2"/>
            <rect x="28" width="22" height="22" rx="4" fill="#ac5a40"/>
            <rect x="56" width="22" height="22" rx="4" fill="#345197"/>
            <rect x="84" width="22" height="22" rx="4" fill="#14171f"/>
          </g>
          <text x="164" y="20" font-family="'JetBrains Mono',monospace" font-size="9.5" letter-spacing="0.04em" fill="#697384">REV · CLAUDE'S NOTE</text>
          <text x="164" y="40" font-size="11.5" fill="#39414f">for "tighter, confident":</text>
          <text x="164" y="56" font-family="'JetBrains Mono',monospace" font-size="10.5" fill="#ac5a40">600→700 · track −0.01</text>
        </g>
        <!-- action row -->
        <g transform="translate(0,248)">
          <line x1="0" y1="36" x2="400" y2="36" stroke="#e2e7ee"/>
          <g transform="translate(14,7)" filter="url(#soft2)"><rect width="160" height="34" rx="5" fill="url(#clay0)"/><line x1="10" y1="1.2" x2="150" y2="1.2" stroke="#ecb6a0" stroke-width="1.2"/><text x="80" y="22" text-anchor="middle" font-size="13" font-weight="700" fill="#1a0f0a">✦ Apply change</text></g>
          <g transform="translate(186,7)"><rect width="92" height="34" rx="5" fill="#ffffff" stroke="#bcc5d2"/><text x="46" y="22" text-anchor="middle" font-size="13" font-weight="600" fill="#39414f">Discard</text></g>
          <text x="386" y="29" text-anchor="end" font-family="'JetBrains Mono',monospace" font-size="10" fill="#8a93a1">1:1</text>
        </g>
        <!-- validated cell -->
        <g transform="translate(0,284)">
          <rect x="14" y="0" width="372" height="26" rx="4" fill="#d7eede" stroke="#aed4bd"/>
          <text x="26" y="17" font-family="'JetBrains Mono',monospace" font-size="11" fill="#226b40">✓ validated · @genie ok · 1 pending</text>
        </g>
      </g>
    </g>
  </g>

  <!-- footer caption -->
  <text x="384" y="973" font-family="'JetBrains Mono',monospace" font-size="11.5" fill="#697384">genie · preview + refine · drawn to spec, harness ghosted · surface 2 / 4</text>
  <text x="1416" y="973" font-family="'JetBrains Mono',monospace" font-size="11.5" fill="#8a93a1" text-anchor="end">Drafting Room · title-block layout</text>
</svg>
