<svg xmlns="http://www.w3.org/2000/svg" width="1440" height="980" viewBox="0 0 1440 980" font-family="Inter, system-ui, sans-serif">
<!-- Hallmark · genie (hybrid) · genre: editorial-modern · pre-emit critique: P5 H5 E5 S5 R5 V5
     Surface 1 (pass 3 · premium craft) — subtle editorial depth (lit top edges, inner
     hairlines), bigger serif hierarchy, beautiful gilt variant in the grid, crafted @genie
     + files blocks. Component-detail view. Warm cream / serif / genie-gilt. -->
  <defs>
    <linearGradient id="lamp1" x1="0" y1="0" x2="1" y2="1"><stop offset="0" stop-color="#c87c5e"/><stop offset="1" stop-color="#ac5a40"/></linearGradient>
    <linearGradient id="giltSurface1" x1="0" y1="0" x2="0" y2="1"><stop offset="0" stop-color="#d9916e"/><stop offset="0.5" stop-color="#c87c5e"/><stop offset="1" stop-color="#b8674e"/></linearGradient>
    <filter id="soft1" x="-20%" y="-20%" width="140%" height="140%"><feDropShadow dx="0" dy="2" stdDeviation="6" flood-color="#171614" flood-opacity="0.08"/></filter>
    <filter id="lift1" x="-50%" y="-50%" width="200%" height="200%">
      <feDropShadow dx="0" dy="8" stdDeviation="20" flood-color="#8d4734" flood-opacity="0.28"/>
      <feDropShadow dx="0" dy="2" stdDeviation="3" flood-color="#171614" flood-opacity="0.08"/>
    </filter>
  </defs>

  <rect width="1440" height="980" fill="#faf8f5"/>

  <!-- ── top bar (lit edge) ── -->
  <rect width="1440" height="52" fill="#f3f0ea"/>
  <line x1="0" y1="0" x2="1440" y2="0" stroke="#fdfcf9" stroke-width="1"/>
  <line x1="0" y1="52" x2="1440" y2="52" stroke="#dad7d2"/>
  <g transform="translate(24,11)">
    <rect width="30" height="30" rx="8" fill="url(#lamp1)" filter="url(#soft1)"/>
    <path d="M7.5 19.5 q7.5 -11 15 0" fill="none" stroke="#faf8f5" stroke-width="2.1" stroke-linecap="round"/>
    <path d="M15 4 l1 3 3 1 -3 1 -1 3 -1 -3 -3 -1 3 -1 z" fill="#faf8f5"/>
    <text x="44" y="14" font-family="Newsreader, Georgia, serif" font-size="18" font-weight="600" fill="#171614">genie</text>
    <text x="92" y="14" font-family="Inter, sans-serif" font-size="13" fill="#75716d">· Quanta UI Kit ▾</text>
  </g>
  <g transform="translate(470,12)">
    <rect width="124" height="28" rx="8" fill="#faf8f5" stroke="#dad7d2" filter="url(#soft1)"/><line x1="8" y1="1" x2="116" y2="1" stroke="#ffffff"/>
    <text x="20" y="19" font-family="Inter, sans-serif" font-size="13" font-weight="600" fill="#171614">UI Kit</text>
    <text x="148" y="19" font-family="JetBrains Mono, monospace" font-size="12" fill="#75716d">primitives / Button</text>
  </g>
  <g transform="translate(1300,12)"><rect width="62" height="28" rx="8" fill="#171614"/><line x1="8" y1="1" x2="54" y2="1" stroke="#423f3d" opacity="0.5"/><text x="31" y="19" text-anchor="middle" font-family="Inter, sans-serif" font-size="13" font-weight="600" fill="#faf8f5">Share</text></g>
  <circle cx="1392" cy="26" r="14" fill="#eae6df" stroke="#c7c3bd"/><text x="1392" y="31" text-anchor="middle" font-family="Inter, sans-serif" font-size="12" font-weight="600" fill="#423f3d">R</text>

  <!-- ════ LEFT: file tree ════ -->
  <g transform="translate(0,52)">
    <rect width="300" height="928" fill="#f3f0ea"/>
    <line x1="0" y1="0" x2="0" y2="928" stroke="#fdfcf9"/>
    <line x1="300" y1="0" x2="300" y2="928" stroke="#dad7d2"/>
    <g transform="translate(20,20)"><rect width="260" height="32" rx="8" fill="#faf8f5" stroke="#dad7d2"/><line x1="8" y1="1" x2="252" y2="1" stroke="#ffffff"/><circle cx="20" cy="16" r="5" fill="none" stroke="#75716d" stroke-width="1.4"/><path d="M24 20 l4 4" stroke="#75716d" stroke-width="1.4" stroke-linecap="round"/><text x="36" y="21" font-family="Inter, sans-serif" font-size="13" fill="#75716d">Search components…</text></g>

    <g font-family="Inter, sans-serif" font-size="13.5">
      <text x="20" y="84" fill="#423f3d">▤  Readme</text>
      <text x="20" y="116" font-weight="700" fill="#171614">▾  brand</text><text x="268" y="116" text-anchor="end" font-family="JetBrains Mono, monospace" font-size="11" fill="#75716d">3</text>
      <g transform="translate(40,128)"><rect width="14" height="14" rx="4" fill="#171614"/><text x="24" y="12" fill="#423f3d">BrandMark</text></g>
      <g transform="translate(40,152)"><rect width="14" height="14" rx="4" fill="#345197"/><text x="24" y="12" fill="#423f3d">QGrid</text></g>
      <g transform="translate(40,176)"><rect width="14" height="14" rx="4" fill="url(#giltSurface1)"/><text x="24" y="12" fill="#423f3d">QMonogram</text></g>
      <text x="20" y="216" font-weight="700" fill="#171614">▾  dataviz</text><text x="268" y="216" text-anchor="end" font-family="JetBrains Mono, monospace" font-size="11" fill="#75716d">4</text>
      <g transform="translate(40,228)"><rect width="14" height="14" rx="4" fill="#faf8f5" stroke="#c7c3bd"/><text x="24" y="12" fill="#423f3d">AgentCard</text></g>
      <g transform="translate(40,252)"><rect width="14" height="14" rx="4" fill="#348f4f"/><text x="24" y="12" fill="#423f3d">BarMeter</text></g>
      <g transform="translate(40,276)"><rect width="14" height="14" rx="4" fill="url(#giltSurface1)"/><text x="24" y="12" fill="#423f3d">DonutChart</text></g>
      <g transform="translate(40,300)"><rect width="14" height="14" rx="4" fill="#345197"/><text x="24" y="12" fill="#423f3d">StatCell</text></g>
      <text x="20" y="340" font-weight="700" fill="#171614">▾  nav</text><text x="268" y="340" text-anchor="end" font-family="JetBrains Mono, monospace" font-size="11" fill="#75716d">3</text>
      <g transform="translate(40,352)"><rect width="14" height="14" rx="4" fill="#171614"/><text x="24" y="12" fill="#423f3d">NavItem</text></g>
      <g transform="translate(40,376)"><rect width="14" height="14" rx="4" fill="#faf8f5" stroke="#c7c3bd"/><text x="24" y="12" fill="#423f3d">SidebarToggle</text></g>
      <g transform="translate(40,400)"><rect width="14" height="14" rx="4" fill="#345197"/><text x="24" y="12" fill="#423f3d">WorkspaceSwitcher</text></g>
      <text x="20" y="440" font-weight="700" fill="#171614">▾  primitives</text><text x="268" y="440" text-anchor="end" font-family="JetBrains Mono, monospace" font-size="11" fill="#75716d">8</text>
      <g transform="translate(40,452)"><rect width="14" height="14" rx="4" fill="#345197"/><text x="24" y="12" fill="#423f3d">Badge</text></g>
      <!-- Button selected (lit pill) -->
      <rect x="12" y="476" width="276" height="26" rx="6" fill="#fae2d8"/><line x1="20" y1="477" x2="280" y2="477" stroke="#fcebe2"/>
      <g transform="translate(40,476)"><rect width="14" height="14" rx="4" fill="url(#giltSurface1)"/><text x="24" y="12" font-weight="600" fill="#171614">Button</text><text x="236" y="12" font-family="JetBrains Mono, monospace" font-size="10" fill="#ac5a40">4 var</text></g>
      <g transform="translate(40,500)"><rect width="14" height="14" rx="4" fill="#faf8f5" stroke="#c7c3bd"/><text x="24" y="12" fill="#423f3d">Card</text></g>
      <g transform="translate(40,524)"><rect width="14" height="14" rx="4" fill="#171614"/><text x="24" y="12" fill="#423f3d">FormField</text></g>
      <g transform="translate(40,548)"><rect width="14" height="14" rx="4" fill="url(#giltSurface1)"/><text x="24" y="12" fill="#423f3d">Pill</text></g>
      <g transform="translate(40,572)"><rect width="14" height="14" rx="4" fill="#faf8f5" stroke="#c7c3bd"/><text x="24" y="12" fill="#423f3d">SearchInput</text></g>
      <g transform="translate(40,596)"><rect width="14" height="14" rx="4" fill="#348f4f"/><text x="24" y="12" fill="#423f3d">StatusDot</text></g>
      <g transform="translate(40,620)"><rect width="14" height="14" rx="4" fill="#345197"/><text x="24" y="12" fill="#423f3d">Table</text></g>
    </g>
    <line x1="20" y1="892" x2="280" y2="892" stroke="#dad7d2"/>
    <text x="20" y="914" font-family="JetBrains Mono, monospace" font-size="11" fill="#75716d">30 components · 4 groups · ✓ synced</text>
  </g>

  <!-- ════ RIGHT: COMPONENT DETAIL ════ -->
  <g transform="translate(300,52)">
    <rect width="1140" height="928" fill="#faf8f5"/>

    <!-- header — bigger serif, wider hierarchy gap -->
    <g transform="translate(56,52)">
      <text font-family="JetBrains Mono, monospace" font-size="12" fill="#75716d" letter-spacing="0.04em">primitives / Button</text>
      <text y="50" font-family="Newsreader, Georgia, serif" font-size="48" font-weight="500" letter-spacing="-0.015em" fill="#171614">Button</text>
      <g transform="translate(196,22)"><rect width="86" height="24" rx="12" fill="#fae2d8"/><line x1="8" y1="1" x2="78" y2="1" stroke="#fcebe2"/><text x="14" y="16" font-family="JetBrains Mono, monospace" font-size="11" fill="#ac5a40">primitives</text></g>
      <g transform="translate(292,22)"><rect width="94" height="24" rx="12" fill="#d4f1d8"/><line x1="8" y1="1" x2="86" y2="1" stroke="#e8faea"/><text x="12" y="16" font-family="JetBrains Mono, monospace" font-size="11" fill="#2a7a42">✓ validated</text></g>
      <text y="84" font-family="Inter, sans-serif" font-size="15.5" fill="#423f3d">The primary action element. Four variants, eight states each — real upstream code from @quanta/dashboard-ui.</text>
    </g>

    <!-- VARIANTS · live render (framed, lit, gilt is beautiful) -->
    <g transform="translate(56,196)">
      <text font-family="Inter, sans-serif" font-size="12" font-weight="600" letter-spacing="0.06em" fill="#75716d">VARIANTS · LIVE RENDER</text>
      <g transform="translate(0,20)">
        <rect width="1028" height="228" rx="16" fill="#f0ece5" stroke="#e3ded4"/><line x1="16" y1="1" x2="1012" y2="1" stroke="#faf7f1"/>
        <text x="1004" y="28" text-anchor="end" font-family="JetBrains Mono, monospace" font-size="10" fill="#75716d">sandboxed · 180×56</text>
        <!-- primary (gilt, gradient + lit edge + lift) -->
        <g transform="translate(80,64)" filter="url(#lift1)">
          <rect width="180" height="56" rx="11" fill="url(#giltSurface1)"/><rect width="180" height="56" rx="11" fill="none" stroke="#99533d" stroke-width="1" opacity="0.5"/>
          <line x1="12" y1="1.5" x2="168" y2="1.5" stroke="#f0c3ac" stroke-width="1.5"/>
          <text x="90" y="35" text-anchor="middle" font-family="Inter, sans-serif" font-size="16" font-weight="700" fill="#171614">Primary</text>
        </g>
        <text x="170" y="160" text-anchor="middle" font-family="JetBrains Mono, monospace" font-size="11" fill="#75716d">primary</text>
        <!-- secondary (lit edge) -->
        <g transform="translate(320,64)" filter="url(#soft1)"><rect width="180" height="56" rx="11" fill="#faf8f5" stroke="#c7c3bd"/><line x1="12" y1="1" x2="168" y2="1" stroke="#ffffff"/><text x="90" y="35" text-anchor="middle" font-family="Inter, sans-serif" font-size="16" font-weight="600" fill="#171614">Secondary</text></g>
        <text x="410" y="160" text-anchor="middle" font-family="JetBrains Mono, monospace" font-size="11" fill="#75716d">secondary</text>
        <!-- ghost -->
        <g transform="translate(560,64)"><rect width="180" height="56" rx="11" fill="none" stroke="#dad7d2" stroke-dasharray="3 3"/><text x="90" y="35" text-anchor="middle" font-family="Inter, sans-serif" font-size="16" font-weight="600" fill="#345197">Ghost</text></g>
        <text x="650" y="160" text-anchor="middle" font-family="JetBrains Mono, monospace" font-size="11" fill="#75716d">ghost</text>
        <!-- danger -->
        <g transform="translate(800,64)" filter="url(#soft1)"><rect width="160" height="56" rx="11" fill="#c5372f"/><line x1="12" y1="1" x2="148" y2="1" stroke="#e07068" opacity="0.6"/><text x="80" y="35" text-anchor="middle" font-family="Inter, sans-serif" font-size="16" font-weight="600" fill="#faf8f5">Delete</text></g>
        <text x="880" y="160" text-anchor="middle" font-family="JetBrains Mono, monospace" font-size="11" fill="#75716d">danger</text>
        <!-- baseline grid hint -->
        <line x1="40" y1="184" x2="988" y2="184" stroke="#e3ded4"/>
        <text x="40" y="204" font-family="JetBrains Mono, monospace" font-size="10" fill="#a39c92">baseline · 8pt grid · radius var(--radius-md)</text>
      </g>
    </g>

    <!-- @genie marker + files (crafted) -->
    <g transform="translate(56,460)">
      <text font-family="Inter, sans-serif" font-size="12" font-weight="600" letter-spacing="0.06em" fill="#75716d">THE @genie MARKER</text>
      <!-- filename tab -->
      <g transform="translate(0,18)"><path d="M0 8 a4 4 0 0 1 4 -4 h150 a4 4 0 0 1 4 4 v6 h-158 z" fill="#eae6df" stroke="#dad7d2"/><text x="14" y="10" font-family="JetBrains Mono, monospace" font-size="10.5" fill="#345197">Button.html</text></g>
      <g transform="translate(0,32)">
        <rect width="500" height="108" rx="0" fill="#efeae2" stroke="#dad7d2"/><rect y="102" width="500" height="6" rx="3" fill="#efeae2"/>
        <rect width="34" height="108" fill="#eae6df"/><line x1="34" y1="0" x2="34" y2="108" stroke="#dad7d2"/>
        <g font-family="JetBrains Mono, monospace" font-size="11" fill="#a39c92" text-anchor="end"><text x="26" y="28">1</text><text x="26" y="50">2</text><text x="26" y="72">3</text></g>
        <g font-family="JetBrains Mono, monospace" font-size="12.5">
          <text x="48" y="28">&lt;!-- <tspan fill="#345197" font-weight="700">@genie</tspan> group=<tspan fill="#2b7440">"primitives"</tspan></text>
          <text x="48" y="50">          viewport=<tspan fill="#2b7440">"180x56"</tspan> --&gt;</text>
          <text x="48" y="72"><tspan fill="#423f3d">&lt;button class=</tspan><tspan fill="#2b7440">"ds-btn ds-btn--primary"</tspan>&gt;…</text>
        </g>
        <line x1="34" y1="84" x2="500" y2="84" stroke="#dad7d2"/>
        <text x="48" y="100" font-family="JetBrains Mono, monospace" font-size="10.5" fill="#ac5a40">✓ genie's regex matches — this preview becomes a card</text>
      </g>
    </g>
    <g transform="translate(584,460)">
      <text font-family="Inter, sans-serif" font-size="12" font-weight="600" letter-spacing="0.06em" fill="#75716d">FILES</text>
      <g transform="translate(0,20)" font-family="JetBrains Mono, monospace" font-size="12.5">
        <g><rect width="500" height="36" rx="8" fill="#faf8f5" stroke="#dad7d2"/><line x1="10" y1="1" x2="490" y2="1" stroke="#ffffff"/><text x="16" y="23" fill="#345197">▸ Button.prompt.md</text><text x="484" y="23" text-anchor="end" font-size="11" fill="#75716d">example + variants</text></g>
        <g transform="translate(0,46)"><rect width="500" height="36" rx="8" fill="#faf8f5" stroke="#dad7d2"/><line x1="10" y1="1" x2="490" y2="1" stroke="#ffffff"/><text x="16" y="23" fill="#345197">▸ Button.d.ts</text><text x="484" y="23" text-anchor="end" font-size="11" fill="#75716d">API contract</text></g>
        <g transform="translate(0,92)"><rect width="500" height="36" rx="8" fill="#fae2d8" stroke="#ecb6a0"/><line x1="10" y1="1" x2="490" y2="1" stroke="#fcebe2"/><text x="16" y="23" fill="#ac5a40">▾ Button.html</text><text x="484" y="23" text-anchor="end" font-size="11" fill="#ac5a40">open · @genie ✓</text></g>
      </g>
    </g>

    <!-- refine CTA strip (lit) -->
    <g transform="translate(56,650)">
      <rect width="1028" height="68" rx="12" fill="#fae2d8" stroke="#ecb6a0"/><line x1="16" y1="1" x2="1012" y2="1" stroke="#fcebe2"/>
      <text x="24" y="30" font-family="Newsreader, Georgia, serif" font-size="19" font-weight="600" fill="#171614">Refine this component</text>
      <text x="24" y="52" font-family="Inter, sans-serif" font-size="13.5" fill="#423f3d">Open it in the preview pane to tweak, or ask Claude in the harness chat: "make Button/Primary tighter."</text>
      <g transform="translate(816,18)" filter="url(#soft1)"><rect width="188" height="32" rx="8" fill="url(#giltSurface1)"/><line x1="12" y1="1.5" x2="176" y2="1.5" stroke="#f0c3ac" stroke-width="1.2"/><text x="20" y="21" font-family="Inter, sans-serif" font-size="13" font-weight="700" fill="#171614">✦ Open in preview →</text></g>
    </g>
  </g>

  <text x="24" y="966" font-family="JetBrains Mono, monospace" font-size="10" fill="#75716d">genie · UI-kit browser · pass 3 craft · lit edges · gilt variants · crafted @genie + files · surface 1 / 2</text>
</svg>
